<svg xmlns="http://www.w3.org/2000/svg" width="946" height="314" font-family="monospace" font-size="13">
<rect width="946" height="314" fill="#0d1117"/>
<text x="16" y="26" fill="#e6edf3" font-size="15" font-weight="bold">UART loopback: TX 0x55 over serial line, RX recovers 0x55</text>
<text x="12" y="66" fill="#58a6ff">tx_start</text>
<path d="M 170.0 78.0 L 190.8 78.0 L 190.8 44.0 L 199.1 44.0 L 199.1 78.0 L 207.4 78.0 L 207.4 78.0 L 273.8 78.0 L 273.8 78.0 L 340.3 78.0 L 340.3 78.0 L 406.8 78.0 L 406.8 78.0 L 473.2 78.0 L 473.2 78.0 L 539.7 78.0 L 539.7 78.0 L 606.2 78.0 L 606.2 78.0 L 672.6 78.0 L 672.6 78.0 L 739.1 78.0 L 739.1 78.0 L 805.5 78.0 L 805.5 78.0 L 872.0 78.0 L 872.0 78.0 L 880.3 78.0 L 880.3 78.0 L 921.8 78.0 L 921.8 44.0 L 926.0 44.0 L 926.0 44.0 L 926.0 44.0" fill="none" stroke="#3fb950" stroke-width="2"/>
<text x="12" y="116" fill="#58a6ff">tx_data</text>
<path d="M 170.0 98 L 176.0 111.0 L 170.0 124 L 184.8 124 L 190.8 111.0 L 184.8 98 Z" fill="#1f6feb22" stroke="#58a6ff" stroke-width="1.5"/>
<text x="180.4" y="115" fill="#e6edf3" text-anchor="middle">0x0</text>
<path d="M 190.8 98 L 196.8 111.0 L 190.8 124 L 915.8 124 L 921.8 111.0 L 915.8 98 Z" fill="#1f6feb22" stroke="#58a6ff" stroke-width="1.5"/>
<text x="556.3" y="115" fill="#e6edf3" text-anchor="middle">0x55</text>
<path d="M 921.8 98 L 927.8 111.0 L 921.8 124 L 920.0 124 L 926.0 111.0 L 920.0 98 Z" fill="#1f6feb22" stroke="#58a6ff" stroke-width="1.5"/>
<text x="923.9" y="115" fill="#e6edf3" text-anchor="middle">0xaa</text>
<path d="M 926.0 98 L 932.0 111.0 L 926.0 124 L 920.0 124 L 926.0 111.0 L 920.0 98 Z" fill="#1f6feb22" stroke="#58a6ff" stroke-width="1.5"/>
<text x="926.0" y="115" fill="#e6edf3" text-anchor="middle">0xaa</text>
<text x="12" y="166" fill="#58a6ff">serial</text>
<path d="M 170.0 144.0 L 190.8 144.0 L 190.8 144.0 L 199.1 144.0 L 199.1 144.0 L 207.4 144.0 L 207.4 178.0 L 273.8 178.0 L 273.8 144.0 L 340.3 144.0 L 340.3 178.0 L 406.8 178.0 L 406.8 144.0 L 473.2 144.0 L 473.2 178.0 L 539.7 178.0 L 539.7 144.0 L 606.2 144.0 L 606.2 178.0 L 672.6 178.0 L 672.6 144.0 L 739.1 144.0 L 739.1 178.0 L 805.5 178.0 L 805.5 144.0 L 872.0 144.0 L 872.0 144.0 L 880.3 144.0 L 880.3 144.0 L 921.8 144.0 L 921.8 144.0 L 926.0 144.0 L 926.0 144.0 L 926.0 144.0" fill="none" stroke="#3fb950" stroke-width="2"/>
<text x="12" y="216" fill="#58a6ff">rx_valid</text>
<path d="M 170.0 228.0 L 190.8 228.0 L 190.8 228.0 L 199.1 228.0 L 199.1 228.0 L 207.4 228.0 L 207.4 228.0 L 273.8 228.0 L 273.8 228.0 L 340.3 228.0 L 340.3 228.0 L 406.8 228.0 L 406.8 228.0 L 473.2 228.0 L 473.2 228.0 L 539.7 228.0 L 539.7 228.0 L 606.2 228.0 L 606.2 228.0 L 672.6 228.0 L 672.6 228.0 L 739.1 228.0 L 739.1 228.0 L 805.5 228.0 L 805.5 228.0 L 872.0 228.0 L 872.0 194.0 L 880.3 194.0 L 880.3 228.0 L 921.8 228.0 L 921.8 228.0 L 926.0 228.0 L 926.0 228.0 L 926.0 228.0" fill="none" stroke="#3fb950" stroke-width="2"/>
<text x="12" y="266" fill="#58a6ff">rx_data</text>
<path d="M 170.0 248 L 176.0 261.0 L 170.0 274 L 866.0 274 L 872.0 261.0 L 866.0 248 Z" fill="#1f6feb22" stroke="#58a6ff" stroke-width="1.5"/>
<text x="521.0" y="265" fill="#e6edf3" text-anchor="middle">0x0</text>
<path d="M 872.0 248 L 878.0 261.0 L 872.0 274 L 920.0 274 L 926.0 261.0 L 920.0 248 Z" fill="#1f6feb22" stroke="#58a6ff" stroke-width="1.5"/>
<text x="899.0" y="265" fill="#e6edf3" text-anchor="middle">0x55</text>
<path d="M 926.0 248 L 932.0 261.0 L 926.0 274 L 920.0 274 L 926.0 261.0 L 920.0 248 Z" fill="#1f6feb22" stroke="#58a6ff" stroke-width="1.5"/>
<text x="926.0" y="265" fill="#e6edf3" text-anchor="middle">0x55</text>
</svg>